<svg width="430" height="126" viewBox="0 0 430 126" fill="none" xmlns="http://www.w3.org/2000/svg">
<path d="M-173 37.6688C-173 -1.55449 -140.57 -33.0113 -101.364 -31.816L459.74 -14.7094H1014.74C1017.85 -14.7094 1020.94 -14.1296 1023.85 -12.9995C1049.59 -2.97753 1042.62 35.2159 1015 35.5008L274.431 43.1389C272.927 43.1544 271.428 43.3241 269.959 43.6453L265.732 44.5695C244.58 49.1938 243.557 78.9795 264.342 85.0437L277.474 88.875C298.5 95.0096 294.072 126 272.169 126H207.144H136.117H-3.59955C-12.1393 126 -20.6581 125.155 -29.0316 123.478L-117.135 105.832C-149.62 99.3259 -173 70.7991 -173 37.6688Z" fill="#6C236D"/>
<ellipse cx="12.1301" cy="30.4015" rx="45.7306" ry="45.067" transform="rotate(-41.8083 12.1301 30.4015)" fill="#23A991"/>
<ellipse cx="76.1858" cy="12.9906" rx="40.8657" ry="40.2726" transform="rotate(-41.8083 76.1858 12.9906)" fill="black"/>
<ellipse cx="56.9617" cy="79.069" rx="21.4058" ry="21.0952" transform="rotate(-41.8083 56.9617 79.069)" fill="#F119F5" fill-opacity="0.86"/>
</svg>
