<svg width="430" height="78" viewBox="0 0 430 78" fill="none" xmlns="http://www.w3.org/2000/svg">
<path d="M-160 19.6518C-160 -4.31905 -140.323 -23.6205 -116.356 -23.1582L472.74 -11.7958H1030.53C1031.81 -11.7958 1033.08 -11.6411 1034.32 -11.3353V-11.3353C1052.47 -6.86576 1049.32 19.8308 1030.63 19.9527L285.169 24.8169L278.502 25.7391C263.869 27.763 263.396 48.7391 277.923 51.4205L287.371 53.1645C301.887 55.844 299.931 77.2245 285.169 77.2245V77.2245H220.144H149.117H-3.4406L-122.565 62.1301C-143.96 59.419 -160 41.2184 -160 19.6518V19.6518Z" fill="#6C236D"/>
<ellipse cx="29.0929" cy="5.85505" rx="31.5929" ry="29.6304" fill="#23A991"/>
<ellipse cx="72.2681" cy="17.6172" rx="28.2319" ry="26.4783" fill="black"/>
<ellipse cx="29.7652" cy="49.355" rx="14.7882" ry="13.8696" fill="#F119F5" fill-opacity="0.86"/>
</svg>
